<?xml version="1.0" encoding="utf-8"?>
<!-- Generator: Adobe Illustrator 24.2.1, SVG Export Plug-In . SVG Version: 6.00 Build 0)  -->
<svg version="1.1" id="Capa_1" xmlns="http://www.w3.org/2000/svg" xmlns:xlink="http://www.w3.org/1999/xlink" x="0px" y="0px"
	 viewBox="0 0 512 512" style="enable-background:new 0 0 512 512;" xml:space="preserve">
<style type="text/css">
	.st0{fill:#9BD069;}
	.st1{fill:#6EC17D;}
	.st2{fill:#B1E4F9;}
	.st3{fill:#90D8F9;}
	.st4{fill:#F6F9F9;}
	.st5{fill:#DDDAEC;}
	.st6{fill:#D5E3F4;}
	.st7{fill:#B3CEEC;}
	.st8{fill:#FD8087;}
	.st9{fill:#FE646F;}
</style>
<g>
	<g>
		<path class="st0" d="M321.8,396.9h74.9V182.3c0-12.3-9.9-22.2-22.2-22.2c-12.3,0-22.2-9.9-22.2-22.2v-32
			c0-20.5-16.7-37.2-37.2-37.2h-38.7l-60.3,235.8l19.7,59.2"/>
		<path class="st1" d="M360.6,182.3v214.6h-38.8L236,363.8l-19.7-59.2l60.3-235.8h2.5c20.5,0,37.2,16.7,37.2,37.2v32
			c0,6.1,2.5,11.7,6.5,15.7c4,4,9.6,6.5,15.7,6.5C350.7,160.1,360.6,170,360.6,182.3L360.6,182.3z"/>
		<path class="st1" d="M360.6,182.3v214.6h-38.8L236,363.8l-19.7-59.2l60.3-235.8h2.5c20.5,0,37.2,16.7,37.2,37.2v32
			c0,6.1,2.5,11.7,6.5,15.7c4,4,9.6,6.5,15.7,6.5C350.7,160.1,360.6,170,360.6,182.3L360.6,182.3z"/>
		<path class="st2" d="M276.5,68.7v298.2H43.7l11.9-86.4L91.5,19.8h136.1C254.6,19.8,276.5,41.7,276.5,68.7z"/>
		<path class="st3" d="M176.7,96.4v270.5h-133l11.9-86.4L90.5,82.2h72C170.3,82.2,176.7,88.5,176.7,96.4z"/>
		<path class="st0" d="M8.5,396.9V46.4c0-20.9,16.9-37.8,37.8-37.8h18.4c20.9,0,37.8,16.9,37.8,37.8v42.3c0,12.2,9.9,22,22,22
			c17.1,0,31,13.9,31,31v255.2H8.5z"/>
		<path class="st1" d="M65.5,143.5c-7.5,0-13.6-6.1-13.6-13.6V46.4c0-16.5,10.6-30.5,25.3-35.7C73.2,9.4,69,8.6,64.7,8.6H46.3
			C25.4,8.6,8.5,25.5,8.5,46.4v350.5h43.4v0h27.2V157.1C79.1,149.6,73,143.5,65.5,143.5L65.5,143.5z"/>
		<path class="st4" d="M328.2,320.5c-13.6,0-24.7,11.1-24.7,24.7v-26.4c0-13.6-11.1-24.7-24.7-24.7c-13.6,0-24.7,11.1-24.7,24.7
			v31.9c0-13.6-11.1-24.7-24.7-24.7s-24.7,11.1-24.7,24.7v-22.3c0-13.6-11.1-24.7-24.7-24.7s-24.7,11.1-24.7,24.7v68.6h166.4
			c17.2,0,31.1-13.9,31.1-31.1v-20.7C352.9,331.5,341.8,320.5,328.2,320.5L328.2,320.5z"/>
		<g>
			<path class="st5" d="M180.1,303.7c4.3,0,8.3,1.1,11.8,3c-2.1,1.1-4,2.6-5.6,4.2c-4.5,4.5-7.2,10.6-7.2,17.5v68.6h-23.7v-68.6
				c0-6.8,2.8-13,7.2-17.5C167.1,306.4,173.3,303.7,180.1,303.7L180.1,303.7z"/>
			<path class="st5" d="M241.3,329c-2.1,1.1-4,2.6-5.6,4.2c-4.5,4.5-7.2,10.6-7.2,17.5v10.2c0,6.5-5.3,11.8-11.8,11.8
				c-6.5,0-11.8-5.3-11.8-11.8v-10.2c0-6.8,2.8-13,7.2-17.5c4.5-4.5,10.6-7.2,17.5-7.2C233.8,326,237.8,327.1,241.3,329z"/>
			<path class="st5" d="M290.7,297.1c-2.1,1.1-4,2.6-5.6,4.2c-4.5,4.5-7.2,10.6-7.2,17.5v51.8c0,6.5-5.3,11.8-11.8,11.8
				c-6.5,0-11.8-5.3-11.8-11.8v-51.8c0-6.8,2.8-13,7.2-17.5c4.5-4.5,10.6-7.2,17.5-7.2C283.1,294.1,287.2,295.2,290.7,297.1z"/>
			<path class="st5" d="M340.1,323.5c-2.1,1.1-4,2.6-5.6,4.2c-4.5,4.5-7.2,10.6-7.2,17.5v9.9c0,6.5-5.3,11.8-11.8,11.8
				c-6.5,0-11.8-5.3-11.8-11.8v-9.9c0-6.8,2.8-13,7.2-17.5c4.5-4.5,10.6-7.2,17.5-7.2C332.5,320.5,336.5,321.6,340.1,323.5z"/>
		</g>
	</g>
	<g>
		<path d="M374.6,154.2c-9,0-16.3-7.3-16.3-16.3v-32c0-23.7-19.3-43-43-43h-33.1c-2.9-27.5-26.2-48.9-54.5-48.9H93.8
			C86.1,7,75.9,2.8,64.7,2.8H46.3C22.2,2.8,2.6,22.3,2.6,46.4v350.5c0,3.2,2.6,5.9,5.9,5.9h388.3c3.2,0,5.9-2.6,5.9-5.9V182.3
			C402.6,166.8,390,154.2,374.6,154.2z M149.6,391.1H14.3V46.4c0-17.6,14.3-31.9,31.9-31.9h18.4c17.6,0,31.9,14.3,31.9,31.9v42.3
			c0,15.4,12.5,27.9,27.9,27.9c13.9,0,25.1,11.3,25.1,25.1V391.1z M390.9,391.1h-42.1c6.2-6.6,10-15.5,10-25.2v-20.7
			c0-16.8-13.7-30.5-30.5-30.5c-7.1,0-13.6,2.4-18.8,6.5v-2.3c0-15.6-11.8-28.6-27-30.3V118.6c0-3.2-2.6-5.9-5.9-5.9
			c-3.2,0-5.9,2.6-5.9,5.9v170.8c-5,1.4-9.6,4-13.4,7.8c-5.8,5.8-8.9,13.4-8.9,21.6v7.8c-5.2-4.1-11.7-6.5-18.8-6.5
			c-6.9,0-13.5,2.3-18.9,6.5c-0.6-10.8-6.8-20.4-16.4-25.4c-2.9-1.5-6.4-0.4-7.9,2.5c-1.5,2.9-0.4,6.4,2.5,7.9
			c6.3,3.3,10.1,9.6,10.1,16.7v22.3c0,3.2,2.6,5.9,5.9,5.9c3.2,0,5.9-2.6,5.9-5.9c0-5,2-9.8,5.5-13.3c3.6-3.6,8.3-5.5,13.3-5.5
			c10.4,0,18.8,8.4,18.8,18.8c0,3.2,2.6,5.9,5.9,5.9c3.2,0,5.9-2.6,5.9-5.9v-31.9c0-5,2-9.8,5.5-13.3c3.6-3.6,8.3-5.5,13.3-5.5
			c10.4,0,18.8,8.4,18.8,18.8v26.4c0,3.2,2.6,5.9,5.9,5.9s5.9-2.6,5.9-5.9c0-10.4,8.4-18.8,18.8-18.8c10.4,0,18.8,8.4,18.8,18.8
			v20.7c0,13.9-11.2,25.2-25.1,25.2h-0.1c0,0,0,0-0.1,0H161.3v-62.7c0-5,2-9.8,5.5-13.3c1.4-1.4,2.9-2.5,4.6-3.4
			c2.9-1.5,4-5,2.5-7.9c-1.5-2.9-5-4-7.9-2.5c-1.7,0.9-3.3,1.9-4.7,3.1V141.7c0-20.3-16.5-36.8-36.8-36.8c-8.9,0-16.2-7.3-16.2-16.2
			V46.4c0-7.5-1.9-14.6-5.3-20.7h124.5c23.7,0,43.1,19.3,43.1,43.1v26.4c0,3.2,2.6,5.9,5.9,5.9c3.2,0,5.9-2.6,5.9-5.9V74.6h32.8
			c17.3,0,31.3,14.1,31.3,31.3v32c0,15.5,12.6,28,28,28c9,0,16.3,7.3,16.3,16.3L390.9,391.1L390.9,391.1z"/>
		<path d="M240.1,141.8c-3.2,0-5.9,2.6-5.9,5.9v126.8c0,3.2,2.6,5.9,5.9,5.9c3.2,0,5.9-2.6,5.9-5.9V147.6
			C246,144.4,243.4,141.8,240.1,141.8z"/>
		<path d="M216,107.7c-3.2,0-5.9,2.6-5.9,5.9v126.8c0,3.2,2.6,5.9,5.9,5.9c3.2,0,5.9-2.6,5.9-5.9V113.6
			C221.8,110.4,219.2,107.7,216,107.7L216,107.7z"/>
		<path d="M178.5,191.4c-3.2,0-5.9,2.6-5.9,5.9v69.5c0,3.2,2.6,5.9,5.9,5.9c3.2,0,5.9-2.6,5.9-5.9v-69.5
			C184.3,194.1,181.7,191.4,178.5,191.4L178.5,191.4z"/>
		<path d="M357,195.4c-4,0-7.8,1.1-11,2.9c-2.2-9.9-11.1-17.4-21.7-17.4c-12.3,0-22.2,10-22.2,22.2v37c0,3.2,2.6,5.9,5.9,5.9
			c3.2,0,5.9-2.6,5.9-5.9v-37c0-5.8,4.7-10.5,10.5-10.5c5.8,0,10.5,4.7,10.5,10.5v14.5c0,3.2,2.6,5.9,5.9,5.9c3.2,0,5.9-2.6,5.9-5.9
			c0-5.8,4.7-10.5,10.5-10.5c5.8,0,10.5,4.7,10.5,10.5v37c0,3.2,2.6,5.9,5.9,5.9c3.2,0,5.9-2.6,5.9-5.9v-37
			C379.3,205.4,369.3,195.4,357,195.4L357,195.4z"/>
		<path d="M100.7,230c-13.6,0-24.8,10.2-26.6,23.3c-4.3-3-9.6-4.8-15.3-4.8c-14.8,0-26.8,12-26.8,26.8v47.3c0,3.2,2.6,5.9,5.9,5.9
			c3.2,0,5.9-2.6,5.9-5.9v-47.3c0-8.3,6.8-15.1,15.1-15.1s15.1,6.8,15.1,15.1c0,3.2,2.6,5.9,5.9,5.9c3.2,0,5.9-2.6,5.9-5.9v-18.5
			c0-8.3,6.8-15.1,15.1-15.1s15.1,6.8,15.1,15.1v47.3c0,3.2,2.6,5.9,5.9,5.9s5.9-2.6,5.9-5.9v-47.3C127.5,242,115.5,230,100.7,230z"
			/>
		<path d="M41.7,128.5c3.2,0,5.9-2.6,5.9-5.9V80.6c0-6.8,5.5-12.3,12.3-12.3s12.3,5.5,12.3,12.3v22.3c0,3.2,2.6,5.9,5.9,5.9
			s5.9-2.6,5.9-5.9V80.6c0-13.3-10.8-24-24-24s-24,10.8-24,24v42.1C35.8,125.9,38.4,128.5,41.7,128.5z"/>
		<path d="M159.9,69.5h-34.7c-3.2,0-5.9,2.6-5.9,5.9s2.6,5.9,5.9,5.9h34.7c9.1,0,16.6,7.4,16.6,16.6v9.4c0,3.2,2.6,5.9,5.9,5.9
			c3.2,0,5.9-2.6,5.9-5.9v-9.4C188.2,82.2,175.5,69.5,159.9,69.5L159.9,69.5z"/>
		<path d="M237.9,84.7V72.5c0-19.3-15.7-35.1-35.1-35.1h-45.2c-3.2,0-5.9,2.6-5.9,5.9c0,3.2,2.6,5.9,5.9,5.9h45.2
			c12.9,0,23.3,10.5,23.3,23.3v12.2c0,3.2,2.6,5.9,5.9,5.9C235.3,90.6,237.9,87.9,237.9,84.7z"/>
	</g>
</g>
<g>
	<g>
		<g>
			<g id="XMLID_440_">
				<path class="st6" d="M355.6,161.8c-86.9,0-157.4,70.4-157.4,157.4c0,33.6,10.5,64.7,28.4,90.2l21.2,28h218.2l18.5-28
					c17.9-25.5,28.4-56.6,28.4-90.2C513,232.2,442.5,161.8,355.6,161.8L355.6,161.8z"/>
			</g>
			<path class="st7" d="M341.4,395.6c-39.2,0-71.4-30.9-73-70.1c-0.1-2.1-0.1-4.2-0.1-6.4c0-74.9,52.3-137.5,122.4-153.4
				c-11.5-2.6-23.4-4-35.7-3.9c-87.2,0.3-157.1,70.9-156.7,158.1c0.2,33.3,10.6,64.1,28.4,89.4l23.1,25.6l40.6,2.5h175.6l18.5-28
				c3.1-4.4,6-9,8.6-13.7L341.4,395.6z"/>
			<path class="st8" d="M495.4,503.6H215.9c-5.4,0-9.7-4.4-9.7-9.7V419c0-5.4,4.4-9.7,9.7-9.7h279.5c5.4,0,9.7,4.4,9.7,9.7v74.8
				C505.1,499.3,500.8,503.6,495.4,503.6L495.4,503.6z"/>
			<path class="st9" d="M270.2,486.3c-14.9,0-26.9-12.1-26.9-26.9v-50h-27.4c-5.4,0-9.7,4.4-9.7,9.7v74.8c0,5.4,4.4,9.7,9.7,9.7
				h279.5c5.4,0,9.7-4.4,9.7-9.7v-7.6L270.2,486.3L270.2,486.3z"/>
		</g>
	</g>
	<g>
		<path d="M495.4,404.2h-1.3c15.7-25.6,24-54.8,24-85.1c0-43.7-17.1-84.8-48.2-115.5c-2-2-5.3-2-7.3,0c-2,2-2,5.3,0,7.3
			c3.8,3.8,7.4,7.7,10.8,11.8c-11.9,7.3-24.7,13.5-38.3,18.4c-5.2-24.1-12.8-45.7-22.4-63.2c11.9,4.8,23.2,11.2,33.7,19
			c2.3,1.7,5.5,1.2,7.2-1.1c1.7-2.3,1.2-5.5-1.1-7.2c-28.2-21-61.7-32.1-96.9-32.1c-43.4,0-84.2,16.9-114.9,47.6
			s-47.6,71.5-47.6,114.9c0,30.3,8.3,59.5,24,85.1h-1.3c-8.2,0-14.9,6.7-14.9,14.9v74.8c0,8.2,6.7,14.9,14.9,14.9h279.5
			c8.2,0,14.9-6.7,14.9-14.9v-9.4c0-2.8-2.3-5.1-5.1-5.1s-5.1,2.3-5.1,5.1v9.4c0,2.5-2.1,4.6-4.6,4.6H215.9c-2.5,0-4.6-2.1-4.6-4.6
			V419c0-2.5,2.1-4.6,4.6-4.6h279.5c2.5,0,4.6,2.1,4.6,4.6v43.5c0,2.8,2.3,5.1,5.1,5.1s5.1-2.3,5.1-5.1V419
			C510.3,410.8,503.6,404.2,495.4,404.2z M474.5,404.2c-11.8-6.9-24.3-12.7-37.3-17.3c3.6-19.9,5.6-41.1,5.9-62.6h64.7
			c-1,28.7-9.8,56.2-25.9,79.9L474.5,404.2L474.5,404.2z M360.8,404.2v-20.7c22.4,0.5,44.1,4,64.6,10.3c-0.7,3.5-1.5,7-2.4,10.4
			L360.8,404.2L360.8,404.2z M288.3,404.2c-0.9-3.4-1.7-6.9-2.4-10.4c20.4-6.3,42.2-9.8,64.6-10.3v20.7H288.3z M277.7,404.2h-18.8
			c5.6-2.6,11.3-5,17.2-7.1C276.6,399.4,277.2,401.8,277.7,404.2z M350.5,167v87.8c-22.2-0.5-44.1-4-64.6-10.4
			c6-28.6,15.6-53.5,27.8-71.7C325.6,169.4,337.9,167.4,350.5,167L350.5,167z M360.8,324.3h72c-0.3,20.4-2.1,40.5-5.5,59.3
			c-21.1-6.4-43.5-10-66.5-10.4L360.8,324.3L360.8,324.3z M360.8,314v-48.9c22.9-0.5,45.4-4.1,66.6-10.5c3.3,18.7,5.2,38.7,5.5,59.4
			H360.8z M350.5,265.1V314h-72c0.3-20.7,2.2-40.7,5.5-59.4C305.1,261,327.6,264.6,350.5,265.1z M350.5,324.3v48.9
			c-23,0.5-45.4,4-66.5,10.4c-3.3-18.9-5.2-38.9-5.5-59.3H350.5z M435.1,397.1c5.9,2.1,11.6,4.5,17.2,7.1h-18.8
			C434.1,401.8,434.6,399.4,435.1,397.1z M479.7,230.9c17.3,24.2,27,52.9,28,83.1h-64.7c-0.3-21.8-2.3-42.9-5.9-62.7
			C452.3,246,466.6,239.1,479.7,230.9L479.7,230.9z M425.4,244.4c-20.5,6.4-42.4,9.9-64.6,10.4V167c12.6,0.4,24.9,2.3,36.7,5.7
			C409.8,190.9,419.3,215.8,425.4,244.4z M248,211.5c14.7-14.7,31.8-26,50.5-33.5c-9.6,17.5-17.2,39.1-22.4,63.2
			c-13.6-4.9-26.4-11.1-38.3-18.4C241,218.8,244.4,215.1,248,211.5z M203.5,324.3h23.7c2.8,0,5.1-2.3,5.1-5.1c0-2.8-2.3-5.1-5.1-5.1
			h-23.7c1-30.2,10.7-58.9,28-83.1c13.1,8.2,27.4,15.1,42.5,20.4c-3.6,19.7-5.6,40.9-5.9,62.7h-19c-2.8,0-5.1,2.3-5.1,5.1
			c0,2.8,2.3,5.1,5.1,5.1h19c0.3,21.5,2.3,42.7,5.9,62.6c-13.1,4.6-25.5,10.4-37.3,17.3h-7.4C213.4,380.4,204.5,352.9,203.5,324.3
			L203.5,324.3z"/>
		<path d="M291.6,434.9c-2.8,0-5.1,2.3-5.1,5.1v38.4c0,2.8,2.3,5.1,5.1,5.1h15.2c2.8,0,5.1-2.3,5.1-5.1c0-2.8-2.3-5.1-5.1-5.1h-10.1
			V440C296.8,437.2,294.5,434.9,291.6,434.9z"/>
		<path d="M326.6,440v38.4c0,2.8,2.3,5.1,5.1,5.1c2.8,0,5.1-2.3,5.1-5.1V440c0-2.8-2.3-5.1-5.1-5.1
			C328.9,434.9,326.6,437.2,326.6,440z"/>
		<path d="M372.1,438.7l-5.2,19l-4.4-18.8c-0.7-2.8-3.4-4.5-6.2-3.8c-2.8,0.7-4.5,3.4-3.8,6.2l9.1,38.4c0.5,2.3,2.6,3.9,4.9,4
			c0,0,0.1,0,0.1,0c2.3,0,4.3-1.5,5-3.8l10.6-38.4c0.8-2.7-0.9-5.6-3.6-6.3C375.7,434.3,372.9,435.9,372.1,438.7L372.1,438.7z"/>
		<path d="M419.4,445.2c2.8,0,5.1-2.3,5.1-5.1s-2.3-5.1-5.1-5.1h-13.8c-4.5,0-8.2,3.7-8.2,8.2v32.2c0,4.5,3.7,8.2,8.2,8.2h13.8
			c2.8,0,5.1-2.3,5.1-5.1c0-2.8-2.3-5.1-5.1-5.1h-11.7v-8.2h6.7c2.8,0,5.1-2.3,5.1-5.1c0-2.8-2.3-5.1-5.1-5.1h-6.7v-9.6H419.4z"/>
	</g>
</g>
</svg>
